<svg width="17" height="26" viewBox="0 0 17 26" fill="none" xmlns="http://www.w3.org/2000/svg">
<path fill-rule="evenodd" clip-rule="evenodd" d="M8.68828 25.8457C8.92863 25.8457 9.15914 25.7502 9.32909 25.5802C9.49905 25.4103 9.59453 25.1798 9.59453 24.9394V3.56461L15.2967 9.26855C15.4668 9.43872 15.6976 9.53432 15.9383 9.53432C16.1789 9.53432 16.4097 9.43872 16.5799 9.26855C16.7501 9.09838 16.8457 8.86758 16.8457 8.62692C16.8457 8.38627 16.7501 8.15547 16.5799 7.9853L9.3299 0.7353C9.24572 0.650904 9.14571 0.583945 9.03561 0.538259C8.92551 0.492572 8.80748 0.469055 8.68828 0.469055C8.56907 0.469055 8.45104 0.492572 8.34094 0.538259C8.23084 0.583945 8.13084 0.650904 8.04665 0.7353L0.796653 7.9853C0.712394 8.06956 0.645556 8.16959 0.599955 8.27968C0.554354 8.38977 0.530884 8.50776 0.530884 8.62692C0.530884 8.86758 0.626484 9.09838 0.796653 9.26855C0.966823 9.43872 1.19762 9.53432 1.43828 9.53432C1.67893 9.53432 1.90973 9.43872 2.0799 9.26855L7.78203 3.56461V24.9394C7.78203 25.1798 7.87751 25.4103 8.04746 25.5802C8.21742 25.7502 8.44793 25.8457 8.68828 25.8457Z" fill="white"/>
</svg>
